<svg width="20" height="20" viewBox="0 0 20 20" fill="none" xmlns="http://www.w3.org/2000/svg">
<g clip-path="url(#clip0_6020_23966)">
<g clip-path="url(#clip1_6020_23966)">
<path d="M10.4167 1.6875V0.416667C10.4167 0.30616 10.3728 0.200179 10.2946 0.122039C10.2165 0.0438987 10.1105 0 10 0C9.88949 0 9.78351 0.0438987 9.70537 0.122039C9.62723 0.200179 9.58333 0.30616 9.58333 0.416667V1.6875C4.7225 1.9075 0.833333 5.91917 0.833333 10.8333C0.833333 13.2508 1.78083 15.4458 3.315 17.085C2.43417 17.4567 1.66667 18.2433 1.66667 19.5833C1.66667 19.6938 1.71057 19.7998 1.78871 19.878C1.86685 19.9561 1.97283 20 2.08333 20C2.19384 20 2.29982 19.9561 2.37796 19.878C2.4561 19.7998 2.5 19.6938 2.5 19.5833C2.5 18.2917 3.43417 17.8692 3.9825 17.7308C5.595 19.1392 7.69667 20 10 20C12.3033 20 14.4058 19.1392 16.0175 17.7308C16.5658 17.8683 17.5 18.2908 17.5 19.5833C17.5 19.6938 17.5439 19.7998 17.622 19.878C17.7002 19.9561 17.8062 20 17.9167 20C18.0272 20 18.1332 19.9561 18.2113 19.878C18.2894 19.7998 18.3333 19.6938 18.3333 19.5833C18.3333 18.2433 17.5667 17.4567 16.685 17.085C18.2784 15.3933 19.166 13.1573 19.1667 10.8333C19.1667 5.91917 15.2775 1.9075 10.4167 1.6875ZM10 19.1667C5.405 19.1667 1.66667 15.4283 1.66667 10.8333C1.66667 6.23833 5.405 2.5 10 2.5C14.595 2.5 18.3333 6.23833 18.3333 10.8333C18.3333 15.4283 14.595 19.1667 10 19.1667ZM13.5833 12.5833C13.6675 12.651 13.7221 12.7488 13.7356 12.8559C13.7491 12.9631 13.7205 13.0713 13.6557 13.1578C13.591 13.2442 13.4952 13.3022 13.3886 13.3194C13.282 13.3366 13.1728 13.3117 13.0842 13.25L9.75083 10.75C9.69908 10.7112 9.65708 10.6609 9.62816 10.603C9.59923 10.5451 9.58417 10.4814 9.58417 10.4167V5.41667C9.58417 5.30616 9.62807 5.20018 9.70621 5.12204C9.78435 5.0439 9.89033 5 10.0008 5C10.1113 5 10.2173 5.0439 10.2955 5.12204C10.3736 5.20018 10.4175 5.30616 10.4175 5.41667V10.2083L13.5842 12.5833H13.5833ZM0.833333 3.75C0.833333 3.86051 0.789435 3.96649 0.711294 4.04463C0.633154 4.12277 0.527174 4.16667 0.416667 4.16667C0.30616 4.16667 0.200179 4.12277 0.122039 4.04463C0.0438987 3.96649 0 3.86051 0 3.75C0 1.665 1.6475 0.0316667 3.75 0.0316667C3.86051 0.0316667 3.96649 0.0755653 4.04463 0.153705C4.12277 0.231846 4.16667 0.337826 4.16667 0.448333C4.16667 0.55884 4.12277 0.664821 4.04463 0.742961C3.96649 0.821101 3.86051 0.865 3.75 0.865C1.85583 0.865 0.833333 2.35167 0.833333 3.75ZM20 3.75C20 3.86051 19.9561 3.96649 19.878 4.04463C19.7998 4.12277 19.6938 4.16667 19.5833 4.16667C19.4728 4.16667 19.3668 4.12277 19.2887 4.04463C19.2106 3.96649 19.1667 3.86051 19.1667 3.75C19.1667 2.35083 18.1442 0.865 16.25 0.865C16.1395 0.865 16.0335 0.821101 15.9554 0.742961C15.8772 0.664821 15.8333 0.55884 15.8333 0.448333C15.8333 0.337826 15.8772 0.231846 15.9554 0.153705C16.0335 0.0755653 16.1395 0.0316667 16.25 0.0316667C18.3525 0.0316667 20 1.665 20 3.75Z" fill="url(#paint0_linear_6020_23966)"/>
</g>
</g>
<defs>
<linearGradient id="paint0_linear_6020_23966" x1="0" y1="0" x2="24.3596" y2="9.61307" gradientUnits="userSpaceOnUse">
<stop stop-color="#3CC5EE"/>
<stop offset="1" stop-color="#5166FD"/>
</linearGradient>
<clipPath id="clip0_6020_23966">
<rect width="20" height="20" fill="white"/>
</clipPath>
<clipPath id="clip1_6020_23966">
<rect width="20" height="20" fill="white"/>
</clipPath>
</defs>
</svg>
