<svg width="20" height="20" viewBox="0 0 20 20" fill="none" xmlns="http://www.w3.org/2000/svg">
<g clip-path="url(#clip0_6051_6994)">
<path d="M15.8333 1.66667H15V0.833333C15 0.61232 14.9122 0.400358 14.7559 0.244078C14.5996 0.0877974 14.3877 0 14.1667 0C13.9457 0 13.7337 0.0877974 13.5774 0.244078C13.4211 0.400358 13.3333 0.61232 13.3333 0.833333V1.66667H6.66667V0.833333C6.66667 0.61232 6.57887 0.400358 6.42259 0.244078C6.26631 0.0877974 6.05435 0 5.83333 0C5.61232 0 5.40036 0.0877974 5.24408 0.244078C5.0878 0.400358 5 0.61232 5 0.833333V1.66667H4.16667C1.86917 1.66667 0 3.53583 0 5.83333V15.8333C0 18.1308 1.86917 20 4.16667 20H15.8333C18.1308 20 20 18.1308 20 15.8333V5.83333C20 3.53583 18.1308 1.66667 15.8333 1.66667ZM4.16667 3.33333H15.8333C17.2117 3.33333 18.3333 4.455 18.3333 5.83333V6.66667H1.66667V5.83333C1.66667 4.455 2.78833 3.33333 4.16667 3.33333ZM15.8333 18.3333H4.16667C2.78833 18.3333 1.66667 17.2117 1.66667 15.8333V8.33333H18.3333V15.8333C18.3333 17.2117 17.2117 18.3333 15.8333 18.3333ZM15.8333 11.6667C15.8333 11.8877 15.7455 12.0996 15.5893 12.2559C15.433 12.4122 15.221 12.5 15 12.5H5C4.77899 12.5 4.56702 12.4122 4.41074 12.2559C4.25446 12.0996 4.16667 11.8877 4.16667 11.6667C4.16667 11.4457 4.25446 11.2337 4.41074 11.0774C4.56702 10.9211 4.77899 10.8333 5 10.8333H15C15.221 10.8333 15.433 10.9211 15.5893 11.0774C15.7455 11.2337 15.8333 11.4457 15.8333 11.6667ZM10 15C10 15.221 9.9122 15.433 9.75592 15.5893C9.59964 15.7455 9.38768 15.8333 9.16667 15.8333H5C4.77899 15.8333 4.56702 15.7455 4.41074 15.5893C4.25446 15.433 4.16667 15.221 4.16667 15C4.16667 14.779 4.25446 14.567 4.41074 14.4107C4.56702 14.2545 4.77899 14.1667 5 14.1667H9.16667C9.38768 14.1667 9.59964 14.2545 9.75592 14.4107C9.9122 14.567 10 14.779 10 15Z" fill="#39393B"/>
</g>
<defs>
<clipPath id="clip0_6051_6994">
<rect width="20" height="20" fill="white"/>
</clipPath>
</defs>
</svg>
