<svg width="20" height="20" viewBox="0 0 20 20" fill="none" xmlns="http://www.w3.org/2000/svg">
<g clip-path="url(#clip0_6023_6624)">
<path d="M12.6318 10.18L10.4168 9.66833V2.5H11.2501C13.3176 2.5 15.0001 4.1825 15.0001 6.25C15.0001 6.36051 15.044 6.46649 15.1221 6.54463C15.2003 6.62277 15.3063 6.66667 15.4168 6.66667C15.5273 6.66667 15.6333 6.62277 15.7114 6.54463C15.7895 6.46649 15.8334 6.36051 15.8334 6.25C15.8334 3.72333 13.7768 1.66667 11.2501 1.66667H10.4168V0.416667C10.4168 0.30616 10.3729 0.200179 10.2947 0.122039C10.2166 0.0438987 10.1106 0 10.0001 0C9.8896 0 9.78362 0.0438987 9.70548 0.122039C9.62734 0.200179 9.58344 0.30616 9.58344 0.416667V1.66667H8.29594C7.20116 1.66777 6.15153 2.10316 5.3774 2.87729C4.60327 3.65142 4.16788 4.70105 4.16677 5.79583C4.16349 6.73065 4.47885 7.63867 5.06086 8.37021C5.64288 9.10174 6.4568 9.61311 7.36844 9.82L9.58344 10.3317V17.5H8.75011C7.75588 17.4989 6.8027 17.1035 6.09967 16.4004C5.39665 15.6974 5.00121 14.7442 5.00011 13.75C5.00011 13.6395 4.95621 13.5335 4.87807 13.4554C4.79993 13.3772 4.69395 13.3333 4.58344 13.3333C4.47293 13.3333 4.36695 13.3772 4.28881 13.4554C4.21067 13.5335 4.16677 13.6395 4.16677 13.75C4.16677 16.2767 6.22344 18.3333 8.75011 18.3333H9.58344V19.5833C9.58344 19.6938 9.62734 19.7998 9.70548 19.878C9.78362 19.9561 9.8896 20 10.0001 20C10.1106 20 10.2166 19.9561 10.2947 19.878C10.3729 19.7998 10.4168 19.6938 10.4168 19.5833V18.3333H11.7043C12.7991 18.3322 13.8487 17.8968 14.6228 17.1227C15.3969 16.3486 15.8323 15.299 15.8334 14.2042C15.8367 13.2694 15.5214 12.3613 14.9393 11.6298C14.3573 10.8983 13.5434 10.3869 12.6318 10.18ZM7.55511 9.00833C6.82752 8.84328 6.17792 8.43517 5.71344 7.85132C5.24896 7.26746 4.99735 6.54274 5.00011 5.79667C5.00121 4.9229 5.3488 4.08523 5.96665 3.46738C6.5845 2.84953 7.42217 2.50194 8.29594 2.50083H9.58344V9.47667L7.55511 9.00833ZM11.7043 17.5H10.4168V10.5242L12.4451 10.9925C13.1727 11.1576 13.8223 11.5657 14.2868 12.1495C14.7513 12.7334 15.0029 13.4581 15.0001 14.2042C14.999 15.0779 14.6514 15.9156 14.0336 16.5335C13.4157 17.1513 12.578 17.4989 11.7043 17.5Z" fill="#39393B"/>
</g>
<defs>
<clipPath id="clip0_6023_6624">
<rect width="20" height="20" fill="white"/>
</clipPath>
</defs>
</svg>
