<svg width="204" height="204" viewBox="0 0 204 204" fill="none" xmlns="http://www.w3.org/2000/svg">
<g opacity="0.3">
<path d="M189.271 135.497C185.016 133.437 180.403 132.217 175.685 131.906C177.743 126.818 178.862 121.4 178.99 115.913C179.948 87.0469 157.08 66.0961 147.349 57.1201L146.329 56.2021C144.922 54.8965 143.636 53.6113 142.433 52.3261C143.675 51.2801 144.674 49.9745 145.357 48.5013C146.041 47.0281 146.394 45.423 146.39 43.7989V43.5949C146.383 41.3523 145.702 39.1636 144.436 37.3123C143.171 35.461 141.378 34.0323 139.291 33.2113C141.628 26.6923 143.263 19.9425 144.167 13.0765C144.308 11.9054 144.117 10.7181 143.616 9.65048C143.114 8.58285 142.322 7.67801 141.33 7.03948C140.338 6.40095 139.187 6.05453 138.007 6.03985C136.828 6.02517 135.668 6.34283 134.66 6.95647C131.535 8.68743 128.195 9.99758 124.726 10.8529C121.381 11.7229 117.87 11.7229 114.526 10.8529C111.034 9.99741 107.673 8.6802 104.53 6.93607C103.516 6.32394 102.35 6.01065 101.166 6.0323C99.9826 6.05396 98.8289 6.40968 97.8385 7.05847C96.854 7.68632 96.0697 8.58268 95.5781 9.64178C95.0865 10.7009 94.9081 11.8785 95.0641 13.0357C95.9815 19.9277 97.6226 26.7039 99.9601 33.2521C97.8677 34.0675 96.0695 35.4943 94.7996 37.3463C93.5297 39.1984 92.847 41.39 92.8405 43.6357V43.8397C92.8399 45.6526 93.2819 47.4382 94.128 49.0415C94.9741 50.6448 96.1988 52.0174 97.6957 53.0401C96.7777 54.0193 95.6557 55.0801 94.4725 56.2021L93.4933 57.1201C83.6401 66.0961 60.8941 87.0265 61.8325 115.892C61.8325 117.402 62.0161 118.85 62.1793 120.299H46.2877V113.75C46.2877 112.668 45.8578 111.631 45.0927 110.865C44.3275 110.1 43.2898 109.67 42.2077 109.67H13.2397C12.1576 109.67 11.1198 110.1 10.3547 110.865C9.58952 111.631 9.15967 112.668 9.15967 113.75V183.314C9.15967 184.397 9.58952 185.434 10.3547 186.199C11.1198 186.965 12.1576 187.394 13.2397 187.394H42.2077C43.2898 187.394 44.3275 186.965 45.0927 186.199C45.8578 185.434 46.2877 184.397 46.2877 183.314V178.01L90.7189 195.942C94.1519 197.233 97.7818 197.924 101.449 197.982C109.609 197.982 116.749 194.453 125.093 190.291L126.031 189.822H126.235L189.475 153.49C191.122 152.627 192.496 151.322 193.444 149.723C194.391 148.123 194.875 146.291 194.84 144.432C194.855 142.568 194.339 140.738 193.353 139.156C192.367 137.574 190.951 136.305 189.271 135.497ZM105.305 46.9201H104.04C103.243 46.9201 102.478 46.6048 101.912 46.043C101.347 45.4812 101.026 44.7185 101.021 43.9213V43.7173C101.013 43.3157 101.085 42.9165 101.233 42.5431C101.381 42.1697 101.602 41.8296 101.883 41.5427C102.164 41.2558 102.5 41.0279 102.87 40.8724C103.241 40.7169 103.638 40.6368 104.04 40.6369H135.232C136.027 40.6369 136.79 40.9528 137.352 41.5152C137.915 42.0776 138.23 42.8403 138.23 43.6357V43.8397C138.241 44.2403 138.172 44.639 138.026 45.0123C137.88 45.3856 137.661 45.7259 137.382 46.0131C137.102 46.3003 136.768 46.5285 136.398 46.6843C136.029 46.84 135.632 46.9202 135.232 46.9201H105.305ZM112.363 18.8089C117.108 20.074 122.102 20.074 126.847 18.8089C129.82 18.0284 132.726 17.012 135.538 15.7693C134.463 21.458 132.914 27.0467 130.907 32.4769H108.263C106.27 27.0437 104.728 21.4556 103.652 15.7693C106.472 17.0086 109.385 18.0249 112.363 18.8089ZM99.0013 63.2401L100.001 62.3221C102.469 60.076 104.774 57.6558 106.896 55.0801H133.926C136.039 57.619 138.322 60.0113 140.76 62.2405L141.8 63.1789C150.715 71.3389 171.625 90.5149 170.789 115.627C170.731 121.534 169.18 127.331 166.28 132.478C163.152 133.135 160.116 134.176 157.243 135.578L135.252 146.166C134.662 142.959 132.976 140.057 130.483 137.954C127.99 135.852 124.845 134.681 121.584 134.64H97.9201C90.5846 127.087 80.9334 122.203 70.5025 120.768C70.2256 119.067 70.0553 117.35 69.9925 115.627C69.1765 90.5149 90.0661 71.4001 99.0013 63.2401ZM17.4013 179.316V117.83H38.2093V179.234L17.4013 179.316ZM185.64 146.125L122.4 182.478L121.584 182.886C110.425 188.455 103.673 191.821 93.7381 188.312L46.2877 169.32V128.52H63.9133C69.4056 128.522 74.8354 129.687 79.8456 131.937C84.8559 134.187 89.3332 137.472 92.9833 141.576C93.3652 142.005 93.8333 142.348 94.3571 142.584C94.8809 142.82 95.4486 142.942 96.0229 142.943H121.584C122.943 142.963 124.252 143.461 125.281 144.348C126.31 145.236 126.994 146.457 127.214 147.798C127.251 148.926 126.922 150.035 126.276 150.96C126.276 150.96 126.276 150.96 126.154 151.123C125.664 151.741 125.045 152.244 124.34 152.597C123.635 152.949 122.862 153.143 122.074 153.163H76.4389C75.3568 153.163 74.319 153.593 73.5539 154.358C72.7887 155.123 72.3589 156.161 72.3589 157.243C72.3589 158.325 72.7887 159.363 73.5539 160.128C74.319 160.893 75.3568 161.323 76.4389 161.323H122.033C123.783 161.329 125.518 160.988 127.135 160.319C128.753 159.65 130.222 158.667 131.458 157.427C131.723 157.162 131.988 156.876 132.233 156.59L160.793 142.841C163.36 141.537 166.112 140.636 168.953 140.168C174.653 139.343 180.47 140.26 185.64 142.8C185.929 142.931 186.174 143.144 186.345 143.412C186.515 143.68 186.603 143.992 186.599 144.31C186.628 144.672 186.553 145.035 186.383 145.357C186.213 145.678 185.956 145.945 185.64 146.125Z" fill="url(#paint0_linear_6022_6141)"/>
<path d="M126.48 112.914H117.096C116.792 112.917 116.49 112.859 116.208 112.744C115.925 112.63 115.669 112.46 115.453 112.246C115.237 112.032 115.065 111.777 114.948 111.496C114.831 111.215 114.77 110.913 114.77 110.609C114.77 109.527 114.34 108.489 113.575 107.724C112.81 106.959 111.772 106.529 110.69 106.529C109.608 106.529 108.571 106.959 107.805 107.724C107.04 108.489 106.61 109.527 106.61 110.609C106.616 113.386 107.723 116.048 109.689 118.01C111.655 119.972 114.319 121.074 117.096 121.074H117.708V124.134C117.708 125.216 118.138 126.254 118.903 127.019C119.668 127.784 120.706 128.214 121.788 128.214C122.87 128.214 123.908 127.784 124.673 127.019C125.438 126.254 125.868 125.216 125.868 124.134V121.074H126.48C127.854 121.074 129.215 120.803 130.485 120.277C131.755 119.751 132.908 118.98 133.88 118.009C134.852 117.037 135.623 115.883 136.149 114.614C136.674 113.344 136.945 111.983 136.945 110.609V103.836C136.94 101.062 135.835 98.4033 133.874 96.4418C131.913 94.4804 129.254 93.3761 126.48 93.3707H117.096C116.792 93.3734 116.49 93.3158 116.208 93.2011C115.925 93.0865 115.669 92.9171 115.453 92.7028C115.237 92.4885 115.065 92.2334 114.948 91.9524C114.831 91.6714 114.77 91.3699 114.77 91.0655V84.2927C114.776 83.6795 115.023 83.0932 115.459 82.6614C115.894 82.2297 116.483 81.9875 117.096 81.9875H126.48C127.09 81.9928 127.673 82.2374 128.104 82.6686C128.535 83.0997 128.78 83.683 128.785 84.2927C128.785 85.3748 129.215 86.4126 129.98 87.1777C130.745 87.9428 131.783 88.3727 132.865 88.3727C133.947 88.3727 134.985 87.9428 135.75 87.1777C136.515 86.4126 136.945 85.3748 136.945 84.2927C136.945 82.9184 136.674 81.5575 136.149 80.2878C135.623 79.0181 134.852 77.8645 133.88 76.8927C132.908 75.9209 131.755 75.15 130.485 74.6241C129.215 74.0982 127.854 73.8275 126.48 73.8275H125.868V70.7675C125.868 69.6854 125.438 68.6477 124.673 67.8825C123.908 67.1174 122.87 66.6875 121.788 66.6875C120.706 66.6875 119.668 67.1174 118.903 67.8825C118.138 68.6477 117.708 69.6854 117.708 70.7675V73.8275H117.096C114.319 73.8275 111.655 74.9294 109.689 76.8914C107.723 78.8535 106.616 81.5153 106.61 84.2927V91.0655C106.616 93.8429 107.723 96.5047 109.689 98.4668C111.655 100.429 114.319 101.531 117.096 101.531H126.48C127.09 101.536 127.673 101.781 128.104 102.212C128.535 102.643 128.78 103.226 128.785 103.836V110.609C128.785 111.22 128.542 111.806 128.11 112.239C127.678 112.671 127.091 112.914 126.48 112.914Z" fill="url(#paint1_linear_6022_6141)"/>
</g>
<defs>
<linearGradient id="paint0_linear_6022_6141" x1="9.15967" y1="6.03125" x2="237.292" y2="93.1196" gradientUnits="userSpaceOnUse">
<stop stop-color="#3CC5EE"/>
<stop offset="1" stop-color="#5166FD"/>
</linearGradient>
<linearGradient id="paint1_linear_6022_6141" x1="106.61" y1="66.6875" x2="147.754" y2="74.6927" gradientUnits="userSpaceOnUse">
<stop stop-color="#3CC5EE"/>
<stop offset="1" stop-color="#5166FD"/>
</linearGradient>
</defs>
</svg>
