<svg width="17" height="16" viewBox="0 0 17 16" fill="none" xmlns="http://www.w3.org/2000/svg">
<g clip-path="url(#clip0_8095_1223)">
<path d="M3.21187 12H13.6492C13.9704 12 14.2869 11.9226 14.5719 11.7745C14.8569 11.6263 15.102 11.4116 15.2865 11.1486C15.471 10.8857 15.5894 10.5822 15.6318 10.2637C15.6742 9.94532 15.6392 9.62138 15.5299 9.31933L13.6285 4.06267C13.3038 2.89447 12.6054 1.86479 11.6401 1.13111C10.6748 0.397433 9.49569 0.000141386 8.2832 6.78207e-10C7.02102 -1.97282e-05 5.79657 0.430392 4.81201 1.22017C3.82745 2.00995 3.14166 3.11187 2.86787 4.344L1.3012 9.41067C1.20896 9.7098 1.18823 10.0264 1.24066 10.335C1.2931 10.6436 1.41724 10.9356 1.6031 11.1875C1.78897 11.4394 2.03136 11.6441 2.31078 11.7852C2.59019 11.9264 2.89884 11.9999 3.21187 12ZM5.2332 13.3333C5.38621 14.0869 5.79502 14.7643 6.39036 15.2509C6.98571 15.7375 7.73097 16.0033 8.49987 16.0033C9.26877 16.0033 10.014 15.7375 10.6094 15.2509C11.2047 14.7643 11.6135 14.0869 11.7665 13.3333H5.2332Z" fill="url(#paint0_linear_8095_1223)"/>
</g>
<defs>
<linearGradient id="paint0_linear_8095_1223" x1="1.2124" y1="0" x2="19.2487" y2="6.42099" gradientUnits="userSpaceOnUse">
<stop stop-color="#3CC5EE"/>
<stop offset="1" stop-color="#5166FD"/>
</linearGradient>
<clipPath id="clip0_8095_1223">
<rect width="16" height="16" fill="white" transform="translate(0.5)"/>
</clipPath>
</defs>
</svg>
