<svg width="17" height="16" viewBox="0 0 17 16" fill="none" xmlns="http://www.w3.org/2000/svg">
<path d="M10.9547 13.3337L11.5747 13.9537C11.3205 14.5596 10.8932 15.077 10.3462 15.441C9.79929 15.8051 9.15707 15.9997 8.50003 16.0004C7.73201 15.9992 6.98785 15.7334 6.39294 15.2477C5.79803 14.7619 5.38874 14.086 5.23403 13.3337H10.9547ZM2.6547 5.03369L1.30136 9.40969C1.20887 9.7089 1.18794 10.0257 1.24025 10.3344C1.29257 10.6432 1.41667 10.9354 1.60256 11.1875C1.78845 11.4395 2.03094 11.6444 2.31049 11.7856C2.59004 11.9268 2.89884 12.0003 3.21203 12.0004H9.62136L2.6547 5.03369ZM13.4427 12.0004H13.6494C15.036 12.0004 16.002 10.6237 15.53 9.31969L13.628 4.06302C13.348 3.05354 12.7878 2.144 12.0123 1.43968C11.2368 0.735367 10.2777 0.265069 9.24599 0.0832256C8.21429 -0.0986174 7.15219 0.0154306 6.18262 0.412169C5.21305 0.808907 4.37565 1.47211 3.76736 2.32502L1.45536 0.0130214L0.512695 0.955688L15.5447 15.9877L16.4874 15.045L13.4427 12.0004Z" fill="white"/>
</svg>
