<svg width="20" height="20" viewBox="0 0 20 20" fill="none" xmlns="http://www.w3.org/2000/svg">
<g clip-path="url(#clip0_6020_24105)">
<g clip-path="url(#clip1_6020_24105)">
<path d="M14.1667 15.4168V16.2501C14.1667 18.3168 12.4833 20.0001 10.4167 20.0001H3.75C1.68333 20.0001 0 18.3168 0 16.2501V9.58342C0 7.51675 1.68333 5.83342 3.75 5.83342H5.41667C5.65 5.83342 5.83333 6.01675 5.83333 6.25009C5.83333 6.48342 5.65 6.66675 5.41667 6.66675H3.75C2.14167 6.66675 0.833333 7.97509 0.833333 9.58342V16.2501C0.833333 17.8584 2.14167 19.1668 3.75 19.1668H10.4167C12.025 19.1668 13.3333 17.8584 13.3333 16.2501V15.4168C13.3333 15.1834 13.5167 15.0001 13.75 15.0001C13.9833 15.0001 14.1667 15.1834 14.1667 15.4168ZM19.3917 4.78342L14.8833 0.125085C14.725 -0.0415815 14.4583 -0.0415815 14.2917 0.116752C14.125 0.275085 14.125 0.541752 14.2833 0.708419L18.8 5.36675C18.9417 5.50842 19.0333 5.67509 19.0917 5.85842C19.0583 5.85009 19.0167 5.83342 18.975 5.83342H10.4167C8.35 5.83342 6.66667 7.51675 6.66667 9.58342V14.5834C6.66667 14.8168 6.85 15.0001 7.08333 15.0001C7.31667 15.0001 7.5 14.8168 7.5 14.5834V9.58342C7.5 7.97509 8.80833 6.66675 10.4167 6.66675H18.975C18.975 6.66675 19.05 6.65842 19.0917 6.64175C19.0333 6.82509 18.9417 6.99175 18.8 7.13342L14.2917 11.7834C14.1333 11.9501 14.1333 12.2084 14.3 12.3751C14.3802 12.4512 14.487 12.493 14.5975 12.4915C14.7081 12.4899 14.8137 12.4451 14.8917 12.3668L19.4 7.71675C20.2083 6.90842 20.2083 5.58342 19.4 4.77509L19.3917 4.78342Z" fill="url(#paint0_linear_6020_24105)"/>
</g>
</g>
<defs>
<linearGradient id="paint0_linear_6020_24105" x1="0" y1="-0.000976562" x2="24.3655" y2="9.61692" gradientUnits="userSpaceOnUse">
<stop stop-color="#3CC5EE"/>
<stop offset="1" stop-color="#5166FD"/>
</linearGradient>
<clipPath id="clip0_6020_24105">
<rect width="20" height="20" fill="white"/>
</clipPath>
<clipPath id="clip1_6020_24105">
<rect width="20" height="20" fill="white"/>
</clipPath>
</defs>
</svg>
